<svg width="120" height="103" viewBox="0 0 120 103" xmlns="http://www.w3.org/2000/svg">
    <g fill="none" fill-rule="evenodd">
        <circle fill="#FFF" cx="60" cy="71" r="32"/>
        <path d="m59.8 54.876.41.005a16.529 16.529 0 0 1 11.003 4.545l.316.308.26.265c6.13 6.406 6.132 16.518.003 22.925l-.263.269-.265.259c-6.405 6.13-16.517 6.132-22.924.003l-.269-.262-.259-.265c-6.217-6.497-6.131-16.803.259-23.194A16.536 16.536 0 0 1 59.8 54.876zm.199-18.617.593.004c11.668.146 23.292 4.588 32.266 13.325l.454.448.143.151a3.54 3.54 0 0 1 0 4.703l-.143.151-.151.143a3.525 3.525 0 0 1-2.158.888l-.194.006a3.527 3.527 0 0 1-2.338-.884l-.164-.153-.47-.463C80.092 47.082 70.046 43.335 60 43.335l-.615.004c-9.863.15-19.68 3.913-27.272 11.289l-.42.413-.151.143a3.527 3.527 0 0 1-2.158.889l-.194.005a3.528 3.528 0 0 1-2.34-.883l-.163-.153-.143-.152a3.541 3.541 0 0 1 .143-4.855c9.184-9.184 21.247-13.776 33.311-13.776zM60 18.262l.653.003c16.099.161 32.148 6.289 44.507 18.382l.506.5.142.151a3.539 3.539 0 0 1 0 4.702l-.142.151-.152.143a3.525 3.525 0 0 1-2.157.889l-.194.005a3.528 3.528 0 0 1-2.34-.883l-.163-.154-.676-.665C88.862 30.72 74.43 25.337 60 25.337l-.884.007c-14.213.217-28.362 5.657-39.282 16.32l-.494.488-.152.143a3.524 3.524 0 0 1-2.157.889l-.194.005a3.528 3.528 0 0 1-2.34-.884l-.163-.154-.143-.15a3.539 3.539 0 0 1 .143-4.854C26.925 24.557 43.463 18.262 60 18.262zM60 0l.696.003c20.888.173 41.725 8.125 57.735 23.855l.532.527.143.151a3.538 3.538 0 0 1 0 4.702l-.143.152-.151.142a3.525 3.525 0 0 1-2.158.889l-.194.005a3.528 3.528 0 0 1-2.338-.883l-.164-.153-.898-.884C98.3 14.219 79.15 7.076 60 7.076l-1.172.008C39.905 7.373 21.07 14.637 6.56 28.878l-.517.512-.151.142a3.528 3.528 0 0 1-2.159.89l-.194.004a3.53 3.53 0 0 1-2.34-.883l-.163-.153-.143-.152a3.54 3.54 0 0 1 .144-4.854C17.293 8.128 38.646 0 60 0z" fill="#D8D8D8"/>
    </g>
</svg>
